<?xml version="1.0" encoding="UTF-8"?>
<svg width="148px" height="22px" viewBox="0 0 148 22" version="1.1" xmlns="http://www.w3.org/2000/svg" xmlns:xlink="http://www.w3.org/1999/xlink">
    <!-- Generator: Sketch 55.2 (78181) - https://sketchapp.com -->
    <title>Group 32 Copy</title>
    <desc>Created with Sketch.</desc>
    <defs>
        <polygon id="path-1" points="0.155928342 0.235367914 7.24106952 0.235367914 7.24106952 7.29076898 0.155928342 7.29076898"></polygon>
    </defs>
    <g id="Symbols" stroke="none" stroke-width="1" fill="none" fill-rule="evenodd">
        <g id="Header" transform="translate(-766.000000, -27.000000)">
            <g id="Group-32-Copy" transform="translate(766.000000, 27.000000)">
                <path d="M9.31372549,15.1521004 C9.31372549,15.3709047 9.3071017,15.5560468 9.29385412,15.7041605 C9.28060654,15.8522741 9.26404706,15.9768243 9.24417569,16.0778109 C9.22430432,16.1787975 9.19780916,16.262953 9.16800211,16.3269111 C9.13819505,16.3908693 9.07526905,16.4716586 8.9759122,16.569279 C8.87655534,16.6668994 8.7043368,16.7847171 8.46256846,16.9264349 C8.22080013,17.0674795 7.94591284,17.1923663 7.6379066,17.2997487 C7.32990036,17.410834 6.99539896,17.4983557 6.6310905,17.5656801 C6.26678205,17.6330045 5.8958498,17.6666667 5.51166998,17.6666667 C4.65388916,17.6666667 3.8921533,17.5320179 3.22977429,17.2593541 C2.56739528,16.9866902 2.01099692,16.5898129 1.56057919,16.0576136 C1.11016146,15.529117 0.769036274,14.8828028 0.540515516,14.1186709 C0.311994758,13.354539 0.196078431,12.482688 0.196078431,11.4997518 C0.196078431,10.3653357 0.335178023,9.38239948 0.613377207,8.5576756 C0.891576391,7.73295172 1.28238001,7.04624286 1.78247616,6.50428146 C2.28257231,5.96232005 2.87540152,5.55837367 3.5576519,5.29580851 C4.23990228,5.03324336 4.99170246,4.90196078 5.80974053,4.90196078 C6.14424193,4.90196078 6.46880765,4.93225676 6.79006147,4.9894825 C7.11131529,5.05007446 7.41269773,5.13086374 7.69089692,5.23185034 C7.9690961,5.33283693 8.22080013,5.44728841 8.44269709,5.57520477 C8.66459406,5.70312112 8.82025313,5.81084016 8.91298619,5.90509432 C9.00571925,5.99934847 9.06864526,6.07677153 9.108388,6.14072971 C9.14481884,6.20468789 9.1746259,6.28547717 9.19449727,6.38982998 C9.21436864,6.49081658 9.23092811,6.61536672 9.24417569,6.76348039 C9.25742327,6.91159407 9.26404706,7.09336994 9.26404706,7.30207558 C9.26404706,7.79354368 9.22099243,8.14026433 9.13819505,8.33887131 C9.05539768,8.53747828 8.94610514,8.63846488 8.81362934,8.63846488 C8.67121785,8.63846488 8.52218257,8.57787292 8.36321161,8.46005522 C8.20424065,8.34223753 8.01877453,8.21095495 7.80018945,8.0662075 C7.58491628,7.92146004 7.32658846,7.79017746 7.02520601,7.67235977 C6.72382357,7.55454207 6.3661389,7.49395011 5.94884012,7.49395011 C5.13080205,7.49395011 4.50485388,7.813741 4.07430753,8.45332278 C3.64044928,9.09290457 3.4251761,10.0320799 3.4251761,11.2674826 C3.4251761,11.8767684 3.47816642,12.4153636 3.58745896,12.8832682 C3.69675149,13.3478065 3.85572246,13.738288 4.06768374,14.0513465 C4.27964502,14.3644049 4.54790852,14.6000403 4.86916234,14.7582527 C5.19041616,14.916465 5.5646603,14.9938881 5.98858287,14.9938881 C6.42244112,14.9938881 6.79668526,14.9299299 7.10800339,14.7986473 C7.41932152,14.6677014 7.69420881,14.5226173 7.92604147,14.3610387 C8.15787412,14.1994602 8.35658782,14.0547127 8.51224689,13.9234301 C8.67121785,13.7921476 8.80369365,13.728526 8.91298619,13.728526 C8.98915978,13.728526 9.05208578,13.7483867 9.10176421,13.7921476 C9.15144263,13.8359084 9.19118537,13.9133315 9.22099243,14.0277829 C9.25079948,14.1422344 9.27398275,14.2869819 9.29054222,14.4653915 C9.30378981,14.640435 9.31372549,14.8693379 9.31372549,15.1521004" id="Fill-1" fill="#FFFFFF"></path>
                <path d="M19.0392157,6.61864531 C19.0392157,6.91507471 19.0324619,7.15612719 19.0155773,7.34506021 C18.9986928,7.53399323 18.9716776,7.6805792 18.9379085,7.78807557 C18.9041394,7.89557195 18.8602397,7.9672362 18.8062092,8.00958325 C18.7488017,8.05193031 18.6812636,8.07147511 18.596841,8.07147511 C18.5293028,8.07147511 18.451634,8.05844524 18.3672113,8.02912805 C18.2827887,7.99981086 18.1848584,7.97049366 18.0801743,7.937919 C17.9721133,7.90534435 17.8572985,7.87602715 17.728976,7.84670996 C17.6006536,7.81739277 17.4622004,7.8043629 17.3068627,7.8043629 C17.1278867,7.8043629 16.9489107,7.84019503 16.7733115,7.90860181 C16.5943355,7.9770086 16.4086057,8.08776244 16.2194989,8.2343484 C16.0270153,8.38093437 15.8277778,8.57963979 15.6217865,8.82394973 C15.4124183,9.07151714 15.1895425,9.37446147 14.953159,9.73278272 L14.953159,16.5702036 C14.953159,16.6516403 14.9261438,16.7233045 14.8754902,16.7851964 C14.8248366,16.8470882 14.737037,16.8992077 14.6154684,16.9382973 C14.4938998,16.9806443 14.3284314,17.0099615 14.125817,17.0295063 C13.9232026,17.0490511 13.6631808,17.0588235 13.3491285,17.0588235 C13.0350763,17.0588235 12.7750545,17.0490511 12.5724401,17.0295063 C12.3698257,17.0099615 12.2043573,16.9773869 12.0827887,16.9382973 C11.9578431,16.8959502 11.8734205,16.8470882 11.8227669,16.7851964 C11.7721133,16.7233045 11.745098,16.6516403 11.745098,16.5702036 L11.745098,5.59905849 C11.745098,5.51762184 11.7653595,5.44595759 11.8092593,5.38406574 C11.853159,5.32217389 11.927451,5.27005443 12.0388889,5.23096484 C12.1503268,5.18861778 12.2921569,5.15930059 12.467756,5.1397558 C12.6433551,5.120211 12.8594771,5.1104386 13.1228758,5.1104386 C13.3964052,5.1104386 13.619281,5.120211 13.7982571,5.1397558 C13.9772331,5.15930059 14.1156863,5.19187525 14.2136166,5.23096484 C14.3115468,5.2733119 14.3824619,5.32217389 14.4229847,5.38406574 C14.4668845,5.44595759 14.487146,5.51762184 14.487146,5.59905849 L14.487146,6.9639367 C14.7843137,6.553496 15.0645969,6.21471954 15.3279956,5.9508648 C15.5913943,5.6837526 15.8412854,5.47201732 16.0810458,5.31891642 C16.3174292,5.16255806 16.5571895,5.05506168 16.793573,4.99316983 C17.0299564,4.93127798 17.2697168,4.90196078 17.5061002,4.90196078 C17.6175381,4.90196078 17.7357298,4.90847572 17.8640523,4.92150558 C17.9923747,4.93453544 18.1240741,4.95408024 18.2591503,4.98339743 C18.3942266,5.01271462 18.5157952,5.04528928 18.6171024,5.08112141 C18.7184096,5.11695353 18.7927015,5.15604312 18.8399782,5.19839018 C18.8872549,5.24073724 18.921024,5.28308429 18.9412854,5.33520375 C18.9615468,5.38406574 18.9818083,5.45247252 18.9986928,5.53716664 C19.0155773,5.62186075 19.029085,5.75215938 19.0358388,5.92480508 C19.0324619,6.09093584 19.0392157,6.32221592 19.0392157,6.61864531" id="Fill-3" fill="#FFFFFF"></path>
                <path d="M28.1399578,10.0340582 C28.1664177,9.13669733 27.9878133,8.43426881 27.6107594,7.9200508 C27.2303981,7.40919369 26.6482799,7.15376514 25.8544823,7.15376514 C25.454276,7.15376514 25.1069896,7.23106589 24.812623,7.38230648 C24.5182564,7.53354707 24.2701947,7.73856209 24.0750528,7.99735155 C23.8799109,8.256141 23.7277663,8.55862219 23.6255649,8.9115169 C23.5193945,9.26441161 23.4601904,9.63747173 23.4433222,10.0340582 L28.1399578,10.0340582 Z M31.186156,10.9482235 C31.186156,11.3380882 31.1001612,11.6237648 30.9314792,11.8119753 C30.7594898,11.996825 30.524658,12.0909302 30.2273147,12.0909302 L23.4469604,12.0909302 C23.4469604,12.5715392 23.502857,13.0114813 23.6153117,13.4047068 C23.7277663,13.7982684 23.9063708,14.1343586 24.151125,14.4065917 C24.39621,14.6821857 24.713729,14.8905616 25.1007054,15.0350804 C25.4873509,15.1795992 25.9503995,15.2501781 26.4931586,15.2501781 C27.0422019,15.2501781 27.5250954,15.2095112 27.9415084,15.1291856 C28.3582521,15.048524 28.7187685,14.9611405 29.0230576,14.8636744 C29.3273467,14.7662082 29.5790466,14.6784887 29.7771653,14.5981631 C29.9756147,14.5175015 30.1376817,14.4771706 30.2633663,14.4771706 C30.3394386,14.4771706 30.3989734,14.4906143 30.4518932,14.5208624 C30.5018363,14.5507744 30.5448337,14.6048849 30.5775778,14.6784887 C30.6106527,14.7561255 30.6338052,14.8636744 30.6470351,15.0011353 C30.6602651,15.1426292 30.6672108,15.3173962 30.6672108,15.529133 C30.6672108,15.7136465 30.6635726,15.8753059 30.6539808,16.0063811 C30.6437276,16.1374562 30.6338052,16.248366 30.6172677,16.3424713 C30.6007303,16.4365765 30.5742703,16.5135412 30.5411954,16.5777344 C30.5081205,16.6415915 30.4651232,16.7020878 30.4088958,16.762584 C30.355976,16.8230803 30.207139,16.9034058 29.966023,17.004569 C29.7242454,17.105396 29.4166489,17.2062231 29.0429025,17.3036892 C28.6694869,17.4011554 28.2391825,17.485178 27.756289,17.5591178 C27.2733955,17.6296967 26.757427,17.6666667 26.2083837,17.6666667 C25.2161368,17.6666667 24.3495744,17.5389524 23.6053892,17.2868847 C22.861204,17.0311201 22.2393959,16.6483134 21.7399649,16.1307344 C21.2408647,15.6161803 20.8667876,14.9645014 20.6223641,14.1780504 C20.3772791,13.3915993 20.254902,12.4707121 20.254902,11.412028 C20.254902,10.4037574 20.3838941,9.49967475 20.6418783,8.68969736 C20.8998625,7.88308088 21.2736088,7.19745687 21.7664248,6.63282533 C22.2592408,6.07155469 22.8549197,5.64135923 23.5590843,5.34559985 C24.2635797,5.04984047 25.0540698,4.90196078 25.9371695,4.90196078 C26.8698817,4.90196078 27.6669867,5.04311867 28.3284847,5.32207354 C28.9899827,5.60102841 29.532411,5.98753214 29.9590772,6.48158473 C30.3824359,6.97563733 30.6966475,7.56379519 30.8950969,8.23933649 C31.093877,8.9148778 31.1960784,9.65091534 31.1960784,10.4474491 L31.1960784,10.9482235 L31.186156,10.9482235 Z" id="Fill-5" fill="#FFFFFF"></path>
                <path d="M39.6127676,12.1406325 L38.3977725,12.1406325 C37.8807533,12.1406325 37.4439728,12.1775645 37.0780307,12.2547859 C36.7120885,12.3320074 36.4200063,12.4461608 36.1920478,12.5972463 C35.9637536,12.7483317 35.7958902,12.9329917 35.6914792,13.1478688 C35.5840467,13.3627459 35.5340234,13.6108618 35.5340234,13.8895305 C35.5340234,14.3632673 35.6851004,14.7359447 35.9835615,15.0045411 C36.2823583,15.2761591 36.6986595,15.4107931 37.232465,15.4107931 C37.6789815,15.4107931 38.0922611,15.2966396 38.4682751,15.0683327 C38.8439533,14.8400258 39.2270175,14.5073021 39.6164605,14.0678113 L39.6164605,12.1406325 L39.6127676,12.1406325 Z M42.745098,16.981746 C42.745098,17.0995926 42.7014536,17.1932656 42.6175219,17.2607504 C42.5335902,17.3278995 42.3996352,17.3782613 42.2183428,17.405121 C42.0370503,17.4353381 41.768469,17.4487679 41.4122629,17.4487679 C41.0328917,17.4487679 40.7542385,17.4353381 40.5833536,17.405121 C40.4084399,17.3745681 40.287914,17.3278995 40.2174114,17.2607504 C40.1469088,17.1932656 40.1096431,17.0995926 40.1096431,16.981746 L40.1096431,16.0822839 C39.646676,16.5825446 39.1162277,16.9683162 38.5182984,17.2469849 C37.9207048,17.5259893 37.2626804,17.6666667 36.5341533,17.6666667 C35.9332025,17.6666667 35.3826106,17.589781 34.8790205,17.4319806 C34.3754304,17.2741802 33.9423429,17.0425159 33.5733792,16.7336301 C33.2037441,16.4247443 32.9187121,16.0419945 32.7169403,15.5853807 C32.5155043,15.1287669 32.4117647,14.5949316 32.4117647,13.9872324 C32.4117647,13.3291713 32.5393409,12.7550466 32.7975147,12.2682157 C33.05636,11.7813848 33.4387528,11.3818478 33.9527504,11.0628896 C34.4627194,10.7472889 35.1009359,10.5122671 35.8593426,10.3578242 C36.618085,10.2033813 37.5047394,10.1295173 38.5082266,10.1295173 L39.6094103,10.1295173 L39.6094103,9.44459659 C39.6094103,9.08870642 39.5728161,8.77982062 39.5023135,8.51122426 C39.4314751,8.24598537 39.3109492,8.02439338 39.1461074,7.84644829 C38.9816013,7.66850321 38.7600216,7.53756249 38.488083,7.45362613 C38.212787,7.36968977 37.873703,7.32604286 37.4674737,7.32604286 C36.9340039,7.32604286 36.4602935,7.38647704 36.040635,7.50398794 C35.6209766,7.62149885 35.2520129,7.75243957 34.9330725,7.89681011 C34.6107749,8.04118065 34.3421935,8.17212137 34.1269926,8.28963227 C33.9124632,8.40714318 33.7375496,8.46757736 33.6002374,8.46757736 C33.5062339,8.46757736 33.4253237,8.43736027 33.3517996,8.38028354 C33.281297,8.31984936 33.2205304,8.235913 33.1735287,8.12511701 C33.1268627,8.01432101 33.0929543,7.88002284 33.0660961,7.71886503 C33.042931,7.55770721 33.0295019,7.37976213 33.0295019,7.18502978 C33.0295019,6.92314833 33.0493098,6.71498616 33.0929543,6.56390071 C33.1332415,6.41281526 33.2138159,6.27515963 33.3350132,6.15093382 C33.4521819,6.03006546 33.6606682,5.89240983 33.955772,5.74468184 C34.2512115,5.59695385 34.5973458,5.45929821 34.9968606,5.33171495 C35.3930182,5.20413168 35.8261057,5.10005059 36.2957874,5.02282914 C36.7661405,4.94225024 37.249587,4.90196078 37.7461269,4.90196078 C38.6324455,4.90196078 39.3915236,4.9892546 40.0226899,5.16048477 C40.6504989,5.3350724 41.1708754,5.6003113 41.5771047,5.95955892 C41.9833341,6.31880654 42.2784379,6.78213525 42.4630876,7.34618759 C42.6477373,7.91359738 42.7417408,8.58508826 42.7417408,9.36066023 L42.7417408,16.981746 L42.745098,16.981746 Z" id="Fill-7" fill="#FFFFFF"></path>
                <path d="M57.9411765,2.25255881 C57.9411765,2.87710158 57.8120563,3.30872276 57.5538159,3.54742235 C57.2955755,3.78612194 56.8155132,3.90383681 56.1169398,3.90383681 C55.408434,3.90383681 54.9316825,3.7893918 54.6866852,3.55723192 C54.4416879,3.3283419 54.3191892,2.90980015 54.3191892,2.31141625 C54.3191892,1.68687348 54.4446676,1.25198245 54.6999283,1.010013 C54.9545269,0.768043548 55.4349202,0.647058824 56.143426,0.647058824 C56.8419994,0.647058824 57.3187509,0.76477369 57.567059,1.00020342 C57.815367,1.23563316 57.9411765,1.65417491 57.9411765,2.25255881 L57.9411765,2.25255881 Z M56.7526084,5.56165452 C57.1035505,5.56165452 57.3452371,5.63686124 57.4842896,5.78400482 C57.6233421,5.93114841 57.6895576,6.14695899 57.6895576,6.42489688 L57.6895576,16.993076 C57.6895576,17.0748225 57.6630714,17.1467593 57.6134098,17.2088866 C57.5637482,17.2710139 57.4809788,17.3233316 57.3617909,17.3625699 C57.2455828,17.4050781 57.0836859,17.4345068 56.8817287,17.4541259 C56.6764606,17.4737451 56.4248418,17.4835547 56.1268721,17.4835547 C55.8189701,17.4835547 55.5637093,17.4737451 55.3587724,17.4541259 C55.1535044,17.4345068 54.9945872,17.4018082 54.8787101,17.3625699 C54.7625019,17.3200618 54.6797326,17.2710139 54.6270913,17.2088866 C54.5774296,17.1467593 54.5509434,17.0748225 54.5509434,16.993076 L54.5509434,8.08271458 L49.538431,8.08271458 L49.538431,13.255629 C49.538431,13.8572828 49.6344434,14.3085231 49.8264683,14.6060801 C50.0181622,14.9036372 50.359503,15.0573204 50.8528084,15.0573204 C51.0183471,15.0573204 51.1706428,15.044241 51.3030737,15.0148123 C51.4355047,14.9853836 51.5546926,14.952685 51.6603063,14.9167166 C51.7665821,14.8807481 51.8523312,14.8480496 51.9218575,14.8186209 C51.9913837,14.7891921 52.0575992,14.7761127 52.1138824,14.7761127 C52.1638751,14.7761127 52.2135367,14.7891921 52.2565768,14.8186209 C52.3029276,14.8480496 52.3393461,14.9036372 52.3621905,14.9919233 C52.3886767,15.0769396 52.4088724,15.1946545 52.4317167,15.3453949 C52.4519125,15.4922115 52.4618448,15.6818632 52.4618448,15.9140231 C52.4618448,16.2769773 52.4419801,16.5483754 52.3989401,16.7350843 C52.3559,16.9211392 52.2996168,17.0552033 52.2231379,17.1438165 C52.1473212,17.2285058 52.0347549,17.3037125 51.88577,17.3658398 C51.7367852,17.4279671 51.5609831,17.4802848 51.3659784,17.5260628 C51.1706428,17.5718408 50.9587532,17.6078092 50.726999,17.6306982 C50.4985555,17.6568571 50.2664703,17.6666667 50.0314053,17.6666667 C49.406,17.6666667 48.8663437,17.5881901 48.4061461,17.4312369 C47.9489281,17.2742838 47.5685202,17.0355842 47.2672397,16.7085984 C46.9659592,16.3848826 46.747117,15.9728805 46.6050848,15.4791321 C46.4627215,14.9853836 46.3931952,14.4000791 46.3931952,13.7264885 L46.3931952,8.08271458 L45.0556424,8.08271458 C44.8967252,8.08271458 44.7772062,7.98461886 44.6944369,7.79169727 C44.6116675,7.59877569 44.5686275,7.2750598 44.5686275,6.82381948 C44.5686275,6.58511989 44.5788909,6.38238873 44.5987555,6.21889586 C44.6186201,6.05540299 44.6513968,5.92460869 44.6911261,5.82978283 C44.7311865,5.73495696 44.7841589,5.66628995 44.8470636,5.62705167 C44.9099683,5.58454352 44.9824743,5.56492438 45.0652436,5.56492438 L46.3895534,5.56492438 L46.3895534,3.10926146 C46.3895534,3.02751502 46.4130599,2.9523083 46.4590797,2.88691115 C46.5057616,2.821514 46.5885309,2.76592643 46.7110296,2.72014842 C46.8298864,2.67437042 46.9924454,2.64167185 47.1977134,2.6220527 C47.4029814,2.60243356 47.6546003,2.59262399 47.95257,2.59262399 C48.260472,2.59262399 48.5150706,2.60243356 48.7203386,2.6220527 C48.9259377,2.64167185 49.0848549,2.67437042 49.200732,2.72014842 C49.3166091,2.76592643 49.3993784,2.821514 49.4520197,2.88691115 C49.5020124,2.9523083 49.5284986,3.02751502 49.5284986,3.10926146 L49.5284986,5.56492438 L56.7526084,5.56492438 L56.7526084,5.56165452 Z" id="Fill-9" fill="#FFFFFF"></path>
                <path d="M71.9215686,16.5703345 C71.9215686,16.6517494 71.8943518,16.7233944 71.8433202,16.7852697 C71.7922886,16.847145 71.7072359,16.8992505 71.58476,16.9383296 C71.4656863,16.9806653 71.298983,17.0099746 71.0914545,17.0295142 C70.8801836,17.0490537 70.6219637,17.0588235 70.3157741,17.0588235 C69.9993781,17.0588235 69.7336735,17.0490537 69.5264852,17.0295142 C69.3155546,17.0099746 69.1519132,16.9774087 69.0331797,16.9383296 C68.9141059,16.8959939 68.8290533,16.847145 68.7746195,16.7852697 C68.7235879,16.7233944 68.6963711,16.6517494 68.6963711,16.5703345 L68.6963711,10.3111622 C68.6963711,9.77708094 68.6552056,9.360237 68.5738952,9.05737382 C68.4922447,8.75451064 68.376573,8.49398318 68.2200761,8.27579143 C68.0669813,8.05759968 67.866257,7.89151342 67.620965,7.77069381 C67.3763535,7.65378211 67.0939786,7.59190684 66.7673764,7.59190684 C66.3557214,7.59190684 65.9406643,7.73519695 65.5218649,8.02177715 C65.103746,8.30835736 64.6648742,8.7284579 64.2123939,9.27556557 L64.2123939,16.5667523 C64.2123939,16.6481671 64.1851771,16.7201378 64.1341454,16.7816874 C64.0831138,16.8438884 63.9946591,16.8959939 63.8721832,16.935073 C63.7493671,16.9774087 63.5830041,17.006718 63.3788777,17.0259319 C63.1747512,17.0457972 62.912789,17.0552413 62.596393,17.0552413 C62.2799971,17.0552413 62.0180348,17.0457972 61.8139084,17.0259319 C61.6094418,17.006718 61.4430787,16.9738264 61.3206029,16.935073 C61.1947249,16.8924116 61.1096722,16.8438884 61.0586406,16.7816874 C61.007609,16.7201378 60.9803922,16.6481671 60.9803922,16.5667523 L60.9803922,5.60212834 C60.9803922,5.52071351 61.0004646,5.44906846 61.0450322,5.38719318 C61.0892596,5.32531791 61.1641059,5.27321242 61.2763755,5.2341333 C61.388645,5.19179759 61.5315335,5.16248825 61.705041,5.14294869 C61.8819505,5.12340913 62.0996854,5.11363935 62.3650498,5.11363935 C62.6406204,5.11363935 62.8651595,5.12340913 63.0454712,5.14294869 C63.2254426,5.16248825 63.3652692,5.19505418 63.4639303,5.2341333 C63.5625915,5.27646901 63.6340357,5.32531791 63.674861,5.38719318 C63.7190884,5.44906846 63.739501,5.52071351 63.739501,5.60212834 L63.739501,6.86894313 C64.3722929,6.21436788 65.0186933,5.72262229 65.6718979,5.39370637 C66.3285045,5.06479045 67.008926,4.90196078 67.7196261,4.90196078 C68.4987087,4.90196078 69.1556555,5.02571133 69.6931885,5.26995583 C70.2273193,5.51745692 70.6593869,5.84962943 70.9893913,6.27298656 C71.3190555,6.69634369 71.5575432,7.18808927 71.7034936,7.7547365 C71.8501244,8.32138374 71.9215686,9.00201173 71.9215686,9.7966205 L71.9215686,16.5703345 Z" id="Fill-11" fill="#FFFFFF"></path>
                <path d="M80.5567606,9.03697093 C80.5567606,8.42996619 80.3873655,7.95710615 80.0448486,7.6183908 C79.7026705,7.27967546 79.2219271,7.11199459 78.5985532,7.11199459 C78.2834783,7.11199459 78.0056703,7.16565247 77.7685171,7.2696146 C77.5279761,7.37693036 77.331139,7.51778229 77.1722464,7.69887762 C77.013015,7.87997295 76.8974875,8.09125085 76.8199045,8.33271129 C76.741644,8.57417174 76.7047159,8.82569304 76.7047159,9.08727519 C76.7047159,9.66074375 76.874111,10.1134821 77.2162891,10.4488438 C77.5581284,10.7808519 78.0293856,10.9485328 78.6354813,10.9485328 C78.9610587,10.9485328 79.2419158,10.8982285 79.4790689,10.79762 C79.7165609,10.6970115 79.9161083,10.5561596 80.0753397,10.3784178 C80.2349099,10.2006761 80.3531477,9.99610548 80.4347961,9.76470588 C80.5161058,9.53330629 80.5567606,9.29184584 80.5567606,9.03697093 M81.3088749,18.0548479 C81.3088749,17.6758891 81.1564193,17.3841244 80.8477814,17.1795538 C80.5394823,16.9783367 80.1197212,16.8676673 79.580706,16.8508993 L77.2904841,16.7871805 C77.0706093,16.9481542 76.8910505,17.1024206 76.7589223,17.2499797 C76.6264553,17.3975389 76.5217691,17.5383908 76.4404595,17.6758891 C76.358811,17.8100338 76.3046046,17.9408249 76.2812281,18.0682623 C76.2541249,18.1956998 76.2439612,18.3264909 76.2439612,18.4606356 C76.2439612,18.8831913 76.4604481,19.201785 76.8910505,19.4231237 C77.3209753,19.6411089 77.9274097,19.7517782 78.7137418,19.7517782 C79.2015997,19.7517782 79.6078092,19.7048276 79.9401624,19.6075727 C80.271838,19.5103178 80.543209,19.3828803 80.7464831,19.2219067 C80.9494184,19.0609331 81.095437,18.8831913 81.1801346,18.6853279 C81.26822,18.4841109 81.3088749,18.2731684 81.3088749,18.0548479 M84.6862745,6.36749155 C84.6862745,6.77327924 84.6391827,7.07175118 84.5443214,7.26626099 C84.4491214,7.46077079 84.3339327,7.55802569 84.1987554,7.55802569 L82.8571461,7.55802569 C83.0434808,7.75924273 83.1786581,7.99064233 83.2599677,8.24887086 C83.3416162,8.50709939 83.382271,8.77538878 83.382271,9.05373901 C83.382271,9.71104801 83.2704702,10.297931 83.0499178,10.8076809 C82.8300429,11.3174307 82.5115801,11.7500473 82.0982561,12.0988235 C81.6845932,12.4475997 81.1865716,12.7158891 80.6008033,12.8969844 C80.0177454,13.0780798 79.3672681,13.1686275 78.6490329,13.1686275 C78.2834783,13.1686275 77.9345243,13.1250304 77.599122,13.0344828 C77.2671076,12.9472887 77.0092883,12.8433266 76.8300682,12.7225963 C76.7280924,12.8332657 76.6369578,12.9640568 76.5553094,13.1149696 C76.4739997,13.2658824 76.4333449,13.4369168 76.4333449,13.6213658 C76.4333449,13.8661799 76.5417578,14.0673969 76.7589223,14.2216633 C76.975748,14.3792833 77.2803204,14.4631237 77.6733171,14.4798918 L80.4483477,14.5805003 C81.095437,14.6073293 81.6747683,14.6978769 82.1829536,14.8521433 C82.6911389,15.0097634 83.1180146,15.2277485 83.4635806,15.5094523 C83.8091466,15.7911562 84.073403,16.1332252 84.2563497,16.528952 C84.4392964,16.9246788 84.530431,17.3774172 84.530431,17.8838134 C84.530431,18.4408492 84.4050786,18.9670318 84.1614885,19.4603489 C83.9138328,19.9529953 83.5415024,20.3825936 83.0468687,20.744449 C82.552235,21.1066396 81.9322489,21.3950507 81.1865716,21.6063286 C80.4412331,21.8176065 79.5674932,21.9215686 78.5714499,21.9215686 C77.599122,21.9215686 76.7687472,21.8444354 76.0847298,21.6935227 C75.3969856,21.5429452 74.8342551,21.331332 74.3972157,21.059689 C73.9571272,20.7883813 73.6386644,20.4664341 73.4384394,20.0904936 C73.2385532,19.7148884 73.1372549,19.3023935 73.1372549,18.8563624 C73.1372549,18.5780122 73.1745218,18.3130764 73.2456678,18.0582015 C73.3168137,17.8033266 73.4252266,17.5618661 73.5637918,17.3304665 C73.7030346,17.0994023 73.8792055,16.8777282 74.0824796,16.6664503 C74.2854149,16.4551724 74.5225681,16.2539554 74.7871632,16.0594456 C74.4212698,15.8649358 74.136686,15.6 73.9367998,15.2683272 C73.7369136,14.9359838 73.6349377,14.5704395 73.6349377,14.171359 C73.6349377,13.67167 73.7504652,13.2189317 73.9808425,12.8097904 C74.2112199,12.4006491 74.5090165,12.0317512 74.8749099,11.7030967 C74.5771133,11.4079784 74.3396214,11.0524949 74.1604013,10.64 C73.9808425,10.2275051 73.8927571,9.71104801 73.8927571,9.09398242 C73.8927571,8.43667343 74.0113337,7.84643678 74.2450989,7.3266261 C74.4788641,6.80681542 74.8071519,6.36749155 75.2242026,6.0086545 C75.6409146,5.64981744 76.1423241,5.37482082 76.7216554,5.18701826 C77.3009866,4.99586207 77.9409613,4.90196078 78.639208,4.90196078 C78.9979868,4.90196078 79.3405037,4.92208249 79.6691302,4.96567951 C79.9977567,5.00927654 80.3026679,5.06628803 80.5838638,5.14342123 L84.2021433,5.14342123 C84.3474843,5.14342123 84.462673,5.23732252 84.5544851,5.42177147 C84.6425706,5.61628127 84.6862745,5.92816768 84.6862745,6.36749155" id="Fill-13" fill="#FFFFFF"></path>
                <path d="M104.745098,2.25255881 C104.745098,2.87710158 104.615975,3.30872276 104.357728,3.54742235 C104.099812,3.78612194 103.619738,3.90383681 102.920816,3.90383681 C102.212624,3.90383681 101.73553,3.7893918 101.490526,3.55723192 C101.245854,3.3283419 101.123352,2.90980015 101.123352,2.31141625 C101.123352,1.68687348 101.248834,1.25198245 101.50377,1.010013 C101.758706,0.768043548 102.239111,0.647058824 102.947303,0.647058824 C103.646225,0.647058824 104.122657,0.76477369 104.370971,1.00020342 C104.619285,1.23563316 104.745098,1.65417491 104.745098,2.25255881 L104.745098,2.25255881 Z M103.556501,5.56165452 C103.907782,5.56165452 104.149144,5.63686124 104.2882,5.78400482 C104.427256,5.93114841 104.493473,6.14695899 104.493473,6.42489688 L104.493473,16.993076 C104.493473,17.0748225 104.466986,17.1467593 104.417654,17.2088866 C104.36766,17.2710139 104.284889,17.3233316 104.165698,17.3625699 C104.049818,17.4050781 103.887586,17.4345068 103.685955,17.4541259 C103.480682,17.4737451 103.228726,17.4835547 102.93108,17.4835547 C102.62317,17.4835547 102.367903,17.4737451 102.16263,17.4541259 C101.957357,17.4345068 101.798767,17.4018082 101.682556,17.3625699 C101.566676,17.3200618 101.483904,17.2710139 101.430931,17.2088866 C101.381268,17.1467593 101.355112,17.0748225 101.355112,16.993076 L101.355112,8.08271458 L96.3421445,8.08271458 L96.3421445,13.255629 C96.3421445,13.8572828 96.4381593,14.3085231 96.630189,14.6060801 C96.8222187,14.906907 97.163568,15.0573204 97.6565545,15.0573204 C97.8220973,15.0573204 97.9743967,15.044241 98.1068309,15.0148123 C98.2395963,14.9853836 98.358456,14.952685 98.4644034,14.9167166 C98.5706819,14.8807481 98.6564331,14.8480496 98.7259611,14.8186209 C98.7954891,14.7891921 98.8617062,14.7761127 98.9179908,14.7761127 C98.9676536,14.7761127 99.0173165,14.7891921 99.0603576,14.8186209 C99.1070407,14.8480496 99.143129,14.9036372 99.166305,14.9919233 C99.1927918,15.0769396 99.212657,15.1946545 99.235833,15.3453949 C99.2593401,15.4954813 99.2656307,15.6818632 99.2656307,15.9140231 C99.2656307,16.2769773 99.2460966,16.5483754 99.2030555,16.7350843 C99.1596833,16.9211392 99.1033987,17.0552033 99.027249,17.1438165 C98.9510993,17.2285058 98.8385302,17.3037125 98.6895417,17.3658398 C98.5408842,17.4279671 98.3650777,17.4802848 98.1700683,17.5260628 C97.9743967,17.5718408 97.7625019,17.6078092 97.5307419,17.6306982 C97.3026239,17.6568571 97.0705329,17.6666667 96.8354621,17.6666667 C96.2100413,17.6666667 95.6700406,17.5881901 95.2098316,17.4312369 C94.7529334,17.2742838 94.3721849,17.0355842 94.0712281,16.7085984 C93.7699401,16.3848826 93.5510925,15.9728805 93.4090568,15.4791321 C93.2663589,14.9853836 93.1968309,14.4000791 93.1968309,13.7264885 L93.1968309,8.08271458 L91.8592449,8.08271458 C91.7006549,8.08271458 91.581133,7.98461886 91.4983616,7.79169727 C91.4155902,7.59877569 91.372549,7.2750598 91.372549,6.82381948 C91.372549,6.58511989 91.3828127,6.38238873 91.4023467,6.21889586 C91.422543,6.05540299 91.4553204,5.92460869 91.4950507,5.82978283 C91.5351121,5.73495696 91.5880858,5.66628995 91.650661,5.62705167 C91.7138983,5.58454352 91.7864061,5.56492438 91.8691775,5.56492438 L93.19352,5.56492438 L93.19352,3.10926146 C93.19352,3.02751502 93.2170271,2.9523083 93.263048,2.88691115 C93.3094,2.821514 93.3921714,2.76592643 93.5146731,2.72014842 C93.6338639,2.67437042 93.796427,2.64167185 94.001369,2.6220527 C94.2066421,2.60243356 94.4585983,2.59262399 94.7562443,2.59262399 C95.064485,2.59262399 95.3190899,2.60243356 95.524363,2.6220527 C95.7299671,2.64167185 95.8885572,2.67437042 96.0047682,2.72014842 C96.1203171,2.76592643 96.2030885,2.821514 96.2560622,2.88691115 C96.3060561,2.9523083 96.332543,3.02751502 96.332543,3.10926146 L96.332543,5.56492438 L103.556501,5.56492438 L103.556501,5.56165452 Z" id="Fill-15" fill="#FFFFFF"></path>
                <path d="M125.408474,16.5703345 C125.408474,16.6517494 125.38215,16.7233944 125.333121,16.7852697 C125.283433,16.847145 125.20117,16.8992505 125.08271,16.9383296 C124.967541,16.9806653 124.809595,17.0099746 124.612162,17.0295142 C124.414729,17.0490537 124.161358,17.0588235 123.855337,17.0588235 C123.539444,17.0588235 123.282782,17.0490537 123.085349,17.0295142 C122.887916,17.0099746 122.727009,16.9774087 122.60822,16.9383296 C122.489761,16.8959939 122.404206,16.847145 122.358139,16.7852697 C122.312071,16.7233944 122.289366,16.6517494 122.289366,16.5703345 L122.289366,10.0636611 C122.289366,9.6956661 122.252841,9.360237 122.18374,9.05411723 C122.114638,8.75125405 122.00605,8.49072659 121.861266,8.27253484 C121.716482,8.05434309 121.535502,7.88825683 121.315365,7.76776288 C121.094569,7.65052552 120.831326,7.58865025 120.525305,7.58865025 C120.153473,7.58865025 119.775061,7.73194035 119.393357,8.01852056 C119.011983,8.30510077 118.597045,8.7252013 118.149531,9.27230898 L118.149531,16.5634957 C118.149531,16.6449105 118.123207,16.7168812 118.073849,16.7787565 C118.024491,16.8406318 117.938936,16.8924116 117.820477,16.9314907 C117.698727,16.9738264 117.54078,17.0034614 117.343348,17.023001 C117.145915,17.0425406 116.895834,17.0519847 116.596394,17.0519847 C116.290373,17.0519847 116.03733,17.0425406 115.839569,17.023001 C115.642136,17.0034614 115.480899,16.9705699 115.362439,16.9314907 C115.240689,16.889155 115.158426,16.8406318 115.109067,16.7787565 C115.059709,16.7168812 115.033385,16.6449105 115.033385,16.5634957 L115.033385,10.0636611 C115.033385,9.6956661 114.997189,9.360237 114.928087,9.05411723 C114.858986,8.75125405 114.753689,8.49072659 114.612195,8.27253484 C114.470702,8.05434309 114.289722,7.88825683 114.065965,7.76776288 C113.842208,7.65052552 113.582254,7.58865025 113.282815,7.58865025 C112.901112,7.58865025 112.519408,7.73194035 112.140996,8.01852056 C111.759621,8.30510077 111.351265,8.7252013 110.910332,9.27230898 L110.910332,16.5634957 C110.910332,16.6449105 110.884007,16.7168812 110.834649,16.7787565 C110.785291,16.8406318 110.699737,16.8924116 110.581277,16.9314907 C110.462818,16.9738264 110.301581,17.0034614 110.104148,17.023001 C109.906715,17.0425406 109.653343,17.0519847 109.347323,17.0519847 C109.041302,17.0519847 108.78793,17.0425406 108.590497,17.023001 C108.393065,17.0034614 108.231828,16.9705699 108.113368,16.9314907 C107.991618,16.889155 107.909354,16.8406318 107.859996,16.7787565 C107.810967,16.7168812 107.784314,16.6449105 107.784314,16.5634957 L107.784314,5.60212834 C107.784314,5.52071351 107.804057,5.44906846 107.846834,5.38719318 C107.889611,5.32531791 107.962003,5.27321242 108.070591,5.2341333 C108.179179,5.19179759 108.317382,5.16248825 108.4852,5.14294869 C108.656308,5.12340913 108.866903,5.11363935 109.123566,5.11363935 C109.3901,5.11363935 109.607276,5.12340913 109.781675,5.14294869 C109.956074,5.16248825 110.090986,5.19505418 110.186412,5.2341333 C110.281838,5.27646901 110.350939,5.32531791 110.390426,5.38719318 C110.433203,5.44906846 110.452946,5.52071351 110.452946,5.60212834 L110.452946,6.86894313 C111.064987,6.21436788 111.677358,5.72262229 112.28578,5.39370637 C112.894531,5.06479045 113.529606,4.90196078 114.194296,4.90196078 C114.648391,4.90196078 115.059709,4.94755309 115.42496,5.0419943 C115.790539,5.1364355 116.115974,5.26995583 116.398961,5.44906846 C116.685239,5.62492449 116.93203,5.83660306 117.139334,6.08084755 C117.346638,6.32834864 117.521037,6.60190248 117.662531,6.90476566 C117.994876,6.55305358 118.317349,6.25019041 118.636532,5.99617613 C118.955715,5.74216185 119.271936,5.53373988 119.580918,5.37416681 C119.89023,5.21459374 120.202832,5.09409979 120.512143,5.01919814 C120.821783,4.9410399 121.140637,4.90196078 121.46311,4.90196078 C122.200193,4.90196078 122.822106,5.02571133 123.325559,5.26995583 C123.829012,5.51745692 124.23704,5.84962943 124.549642,6.27298656 C124.858953,6.69634369 125.08271,7.18808927 125.214332,7.7547365 C125.346283,8.32138374 125.411765,8.91734031 125.411765,9.54911941 L125.411765,16.5703345 L125.408474,16.5703345 Z" id="Fill-17" fill="#FFFFFF"></path>
                <path d="M135.728193,10.0340582 C135.754653,9.13669733 135.576049,8.43426881 135.198995,7.9200508 C134.818633,7.40919369 134.236515,7.15376514 133.442718,7.15376514 C133.042511,7.15376514 132.695225,7.23106589 132.400528,7.38230648 C132.106492,7.53354707 131.85843,7.73856209 131.663288,7.99735155 C131.468146,8.256141 131.316002,8.55862219 131.213469,8.9115169 C131.10763,9.26441161 131.048095,9.63747173 131.031557,10.0340582 L135.728193,10.0340582 Z M138.774391,10.9482235 C138.774391,11.3380882 138.688397,11.6237648 138.519384,11.8119753 C138.347725,11.996825 138.112893,12.0909302 137.815219,12.0909302 L131.034865,12.0909302 C131.034865,12.5715392 131.090762,13.0114813 131.203547,13.4047068 C131.316002,13.7982684 131.494606,14.1343586 131.73903,14.4065917 C131.984115,14.6821857 132.301634,14.8905616 132.68861,15.0350804 C133.075255,15.1795992 133.538635,15.2501781 134.081063,15.2501781 C134.630106,15.2501781 135.113,15.2095112 135.529744,15.1291856 C135.946487,15.048524 136.307004,14.9611405 136.611293,14.8636744 C136.915582,14.7662082 137.166951,14.6784887 137.365401,14.5981631 C137.56385,14.5175015 137.725917,14.4771706 137.851602,14.4771706 C137.927674,14.4771706 137.987209,14.4906143 138.040129,14.5208624 C138.089741,14.5507744 138.132738,14.6048849 138.165813,14.6784887 C138.198888,14.7561255 138.22204,14.8636744 138.23527,15.0011353 C138.2485,15.1426292 138.255115,15.3173962 138.255115,15.529133 C138.255115,15.7136465 138.251808,15.8753059 138.241885,16.0063811 C138.231963,16.1374562 138.22204,16.248366 138.205503,16.3424713 C138.188966,16.4365765 138.162506,16.5135412 138.129431,16.5777344 C138.096356,16.6415915 138.053358,16.7020878 137.997131,16.762584 C137.944211,16.8230803 137.795374,16.9034058 137.553927,17.004569 C137.312481,17.105396 137.004884,17.2062231 136.631138,17.3036892 C136.257391,17.4011554 135.827418,17.485178 135.344524,17.5591178 C134.861631,17.6296967 134.345662,17.6666667 133.796619,17.6666667 C132.804372,17.6666667 131.93781,17.5389524 131.193624,17.2868847 C130.449439,17.0311201 129.827631,16.6483134 129.3282,16.1307344 C128.828769,15.6161803 128.455023,14.9645014 128.210269,14.1780504 C127.965514,13.3915993 127.843137,12.4707121 127.843137,11.412028 C127.843137,10.4037574 127.972129,9.49967475 128.230114,8.68969736 C128.488098,7.88308088 128.861844,7.19745687 129.35466,6.63282533 C129.847476,6.07155469 130.442824,5.64135923 131.14732,5.34559985 C131.851815,5.04984047 132.642305,4.90196078 133.525405,4.90196078 C134.458117,4.90196078 135.255222,5.04311867 135.91672,5.32207354 C136.578218,5.60102841 137.120646,5.98753214 137.547313,6.48158473 C137.970671,6.97563733 138.284552,7.56379519 138.483332,8.23933649 C138.681782,8.9148778 138.784314,9.65091534 138.784314,10.4474491 L138.784314,10.9482235 L138.774391,10.9482235 Z" id="Fill-19" fill="#FFFFFF"></path>
                <g id="Group-31" transform="translate(140.000000, 0.647059)">
                    <mask id="mask-2" fill="white">
                        <use xlink:href="#path-1"></use>
                    </mask>
                    <g id="Clip-30"></g>
                    <path d="M4.2306877,2.94745348 C4.2306877,2.88114332 4.22074118,2.81814866 4.20416364,2.75846952 C4.1875861,2.69879037 4.15111551,2.64574225 4.10105134,2.59932513 C4.04800321,2.55290802 3.9820246,2.51975294 3.89548984,2.49654439 C3.80928663,2.47333583 3.70683743,2.4600738 3.57720107,2.4600738 L3.15977861,2.4600738 L3.15977861,3.47461925 L3.55763957,3.47461925 C3.81260214,3.47461925 3.98534011,3.42488663 4.08480535,3.3287369 C4.18393904,3.23258717 4.2306877,3.10659786 4.2306877,2.94745348 M5.35464492,5.45729305 C5.35464492,5.4805016 5.35132941,5.50371016 5.34138289,5.52691872 C5.33110481,5.54681176 5.30822781,5.5633893 5.27175722,5.57333583 C5.23495508,5.58328235 5.18555401,5.58991337 5.11924385,5.59654439 C5.05260214,5.6031754 4.96341497,5.60649091 4.84704064,5.60649091 C4.74459144,5.60649091 4.66170374,5.6031754 4.59837754,5.59654439 C4.53571444,5.58991337 4.48266631,5.57996684 4.44586417,5.5633893 C4.40607807,5.55012727 4.3762385,5.52691872 4.35667701,5.50039465 C4.33645241,5.47387059 4.32020642,5.43408449 4.30661283,5.38766738 L4.11762888,4.76103636 C4.0446877,4.53889733 3.95881604,4.38306845 3.8593508,4.29354973 C3.75988556,4.20734652 3.6106877,4.16092941 3.41142567,4.16092941 L3.16640963,4.16092941 L3.16640963,5.43076898 C3.16640963,5.49707914 3.13988556,5.54349626 3.09015294,5.56670481 C3.03677326,5.58991337 2.91774652,5.6031754 2.73174652,5.6031754 C2.54276257,5.6031754 2.42042032,5.58991337 2.36040963,5.56670481 C2.30106203,5.54349626 2.27122246,5.49707914 2.27122246,5.43076898 L2.27122246,2.17494011 C2.27122246,2.04231979 2.30404599,1.93953904 2.3706877,1.86328235 C2.43699786,1.78702567 2.5364631,1.75055508 2.66908342,1.75055508 L3.71015294,1.75055508 C3.95185348,1.75055508 4.16437754,1.77044813 4.34971444,1.81354973 C4.53571444,1.85665134 4.69154332,1.9229615 4.82051658,2.01248021 C4.95015294,2.10199893 5.04961818,2.21804171 5.11592834,2.35397754 C5.18190695,2.48991337 5.21539358,2.65237326 5.21539358,2.83804171 C5.21539358,3.12980642 5.13548984,3.35194545 4.97999251,3.51440535 C4.82416364,3.67354973 4.61163957,3.78959251 4.34673048,3.85590267 C4.49261283,3.90563529 4.62821711,3.98520749 4.75453797,4.10125027 C4.88052727,4.21729305 4.98993904,4.38969947 5.07945775,4.61846952 L5.29828128,5.19868342 C5.33475187,5.33461925 5.35464492,5.42413797 5.35464492,5.45729305 M6.42555401,3.79953904 C6.42555401,3.3718385 6.35592834,2.98060856 6.21999251,2.62916471 C6.08405668,2.27772086 5.89507273,1.97932513 5.65304064,1.72734652 C5.41100856,1.47536791 5.12222781,1.28638396 4.79067701,1.15044813 C4.4591262,1.01782781 4.09806738,0.951517647 3.7131369,0.951517647 C3.29571444,0.951517647 2.92106203,1.02445882 2.58619572,1.17034118 C2.25099786,1.31622353 1.96288021,1.51515401 1.72084813,1.76713262 C1.47848449,2.02242674 1.29314759,2.31419144 1.16384278,2.65237326 C1.03420642,2.98723957 0.968227807,3.34531444 0.968227807,3.72659786 C0.968227807,4.15098289 1.03785348,4.53558182 1.17345775,4.88702567 C1.30939358,5.23846952 1.49870909,5.53686524 1.74040963,5.78884385 C1.98277326,6.04082246 2.26790695,6.23312193 2.60277326,6.36905775 C2.93432406,6.50499358 3.29571444,6.57461925 3.68031337,6.57461925 C4.09806738,6.57461925 4.47570374,6.50167807 4.81421711,6.35248021 C5.15206738,6.20328235 5.44051658,6.00435187 5.67923316,5.75568877 C5.91828128,5.50371016 6.10361818,5.21194545 6.23325455,4.87707914 C6.35924385,4.53889733 6.42555401,4.18082246 6.42555401,3.79953904 M7.24116898,3.74649091 C7.24116898,4.24381711 7.14833476,4.70467273 6.96598182,5.13900428 C6.77998182,5.57002032 6.52833476,5.94467273 6.21004599,6.2629615 C5.88844171,6.58125027 5.51014225,6.82991337 5.07614225,7.01558182 C4.64147914,7.20125027 4.17432406,7.29076898 3.68031337,7.29076898 C3.16640963,7.29076898 2.69196043,7.20125027 2.26127594,7.02221283 C1.83025989,6.8431754 1.45892299,6.59782781 1.14693369,6.28948556 C0.835607487,5.97782781 0.59324385,5.60980642 0.417853476,5.17879037 C0.242131551,4.75108984 0.155928342,4.27697219 0.155928342,3.76306845 C0.155928342,3.26905775 0.248431016,2.80488663 0.431115508,2.3771861 C0.616783957,1.94948556 0.868431016,1.57483316 1.18671979,1.25654439 C1.50865561,0.938255615 1.88330802,0.689592513 2.31432406,0.507239572 C2.74534011,0.324886631 3.21282674,0.235367914 3.7131369,0.235367914 C4.22704064,0.235367914 4.70148984,0.321571123 5.13250588,0.497293048 C5.56352193,0.673014973 5.93485882,0.915047059 6.24651658,1.22670481 C6.55817433,1.53836257 6.80020642,1.90969947 6.97559679,2.3374 C7.15463422,2.76841604 7.24116898,3.23921818 7.24116898,3.74649091" id="Fill-29" fill="#FFFFFF" mask="url(#mask-2)"></path>
                </g>
            </g>
        </g>
    </g>
</svg>