<?xml version="1.0" encoding="UTF-8"?>
<svg width="95px" height="31px" viewBox="0 0 95 31" version="1.1" xmlns="http://www.w3.org/2000/svg" xmlns:xlink="http://www.w3.org/1999/xlink">
    <!-- Generator: Sketch 55.2 (78181) - https://sketchapp.com -->
    <title>Group 32</title>
    <desc>Created with Sketch.</desc>
    <g id="Symbols" stroke="none" stroke-width="1" fill="none" fill-rule="evenodd">
        <g id="Header" transform="translate(-80.000000, -24.000000)">
            <g id="Group-32" transform="translate(80.000000, 24.000000)">
                <path d="M94.1425813,30.6461163 C94.1425813,30.8603945 93.9963714,31 93.7072745,31 L0.435306842,31 C0.215991945,31 0,30.8571478 0,30.6461163 L0,25.8832955 C0,25.6690173 0.146209932,25.5294118 0.435306842,25.5294118 L93.7803794,25.5294118 C93.9996943,25.5294118 94.2156863,25.6722639 94.2156863,25.8832955 L94.2156863,30.6461163 L94.1425813,30.6461163 Z" id="Fill-21" fill="#FFD400"></path>
                <path d="M86.8432611,16.5236974 L73.2810264,16.5236974 L73.2810264,12.888017 L86.8432611,12.888017 C88.2359763,12.888017 88.3096295,14.4151953 88.3096295,14.7043632 C88.2359763,14.9961871 88.1623231,16.5236974 86.8432611,16.5236974 L86.8432611,16.5236974 Z M73.2843743,4.89390235 L85.8188118,4.89390235 C87.2115271,4.89390235 87.2851803,6.4207487 87.2851803,6.7095846 C87.2851803,7.00174046 87.2115271,8.52593084 85.8188118,8.52593084 L73.2843743,8.52593084 L73.2843743,4.89390235 Z M91.0214069,10.0564291 C91.6072847,9.10991056 91.9755508,7.94792704 91.9755508,6.63986559 C91.9755508,3.22363404 89.4847331,0.607843137 86.2573832,0.607843137 L68.5170028,0.607843137 C68.2960431,0.607843137 68.0784314,0.753921066 68.0784314,0.96938601 L68.0784314,20.3051238 C68.0784314,20.5242407 68.2257378,20.6666667 68.5170028,20.6666667 L87.2818325,20.6666667 C90.5058344,20.6666667 93,18.1235827 93,14.6346442 C93,12.818298 92.2668158,11.1450417 91.0214069,10.0564291 L91.0214069,10.0564291 Z" id="Fill-23" fill="#FFFFFF"></path>
                <path d="M24.1224757,0.00336196425 C22.8111645,0.00336196425 21.9358477,0.299214819 21.5730738,0.739632136 C21.4998534,0.81359535 21.4998534,0.887558563 21.4998534,0.961521777 L21.4998534,12.4459917 C21.4998534,14.8766918 19.7525479,16.7896495 14.2843137,16.7896495 C8.81607958,16.7896495 7.06877409,14.950655 7.06877409,12.4459917 L7.06877409,0.958159813 C7.06877409,0.884196599 7.06877409,0.810233385 6.99555367,0.736270172 C6.63277977,0.295852854 5.75746292,0 4.44615175,0 C3.13484058,0 2.25952373,0.295852854 1.89674983,0.739632136 C1.82352941,0.810233385 1.82352941,0.884196599 1.82352941,0.958159813 L1.82352941,12.4426297 C1.82352941,17.5222215 5.24824818,21.2745098 14.2843137,21.2745098 C23.3203793,21.2745098 26.745098,17.5191957 26.745098,12.4426297 L26.745098,0.958159813 C26.745098,0.884196599 26.745098,0.810233385 26.6718776,0.736270172 C26.3789959,0.295852854 25.4337869,0.00336196425 24.1224757,0.00336196425" id="Fill-25" fill="#FFFFFF"></path>
                <path d="M48.5278491,15.5300192 L56.6259368,8.00838177 L56.6259368,19.7252232 C56.6259368,19.7978961 56.6259368,19.8705689 56.6999227,19.9429114 C57.0664889,20.3759754 57.9509562,20.6666667 59.2759755,20.6666667 C60.6009948,20.6666667 61.485462,20.3759754 61.8520283,19.9429114 C62,19.8705689 62,19.7978961 62,19.7252232 L62,0.701459494 C62,0.556113843 61.9260141,0.410768192 61.7780424,0.341398676 C60.1604427,-0.309353444 57.5843899,0.268725851 56.4779651,1.42488444 L47.7173678,9.52460118 L38.9534074,1.35551492 C37.8503456,0.199356335 35.2709298,-0.378722959 33.6533301,0.272029161 C33.5053584,0.344701986 33.4313725,0.490047638 33.4313725,0.632089979 L33.4313725,19.6522201 C33.4313725,19.7252232 33.4313725,19.7978961 33.5053584,19.8705689 C33.8719247,20.3033025 34.7563919,20.5939938 36.0814112,20.5939938 C37.4064305,20.5939938 38.2908978,20.3033025 38.657464,19.8705689 C38.7314499,19.7978961 38.7314499,19.7252232 38.7314499,19.6522201 L38.7314499,7.93570895 L46.8295376,15.4573464 C47.3474385,15.9627529 48.083934,15.9627529 48.5278491,15.5300192" id="Fill-27" fill="#FFFFFF"></path>
            </g>
        </g>
    </g>
</svg>