<?xml version="1.0" encoding="utf-8"?>
<!-- Generator: Adobe Illustrator 25.2.3, SVG Export Plug-In . SVG Version: 6.00 Build 0)  -->
<svg version="1.1" id="Ebene_1" xmlns="http://www.w3.org/2000/svg" xmlns:xlink="http://www.w3.org/1999/xlink" x="0px" y="0px"
	 viewBox="0 0 85 80" style="enable-background:new 0 0 85 80;" xml:space="preserve">
<style type="text/css">
	.st0{fill:#FFD400;}
	.st1{fill:#FFFFFF;}
	.st2{fill:#060703;}
</style>
<g>
	<g>
		<path class="st0" d="M16.4,0c-3.5,0-6.3,2.8-6.3,6.3v52.5c0,3.5,2.8,6.3,6.3,6.3h52.5c3.5,0,6.3-2.8,6.3-6.3V6.3
			c0-3.5-2.8-6.3-6.3-6.3H16.4z"/>
	</g>
	<path class="st1" d="M48.1,42.7c0,0,9.1-4.3,6.2-14.2s-17.1-12.7-21.5-4.9s-2,17.4,3.8,19.1c0,0-1.1,14.5,6,13.3
		S48.1,42.7,48.1,42.7z"/>
	<g>
		<g>
			<g>
				<path class="st2" d="M66.1,33h-4c-0.5,0-0.9-0.4-0.9-0.9v-2.5c0-0.5,0.4-0.9,0.9-0.9h4c0.5,0,0.9,0.4,0.9,0.9V32
					C67,32.5,66.6,33,66.1,33z"/>
			</g>
			<g>
				<path class="st2" d="M23.1,33h-4c-0.5,0-0.9-0.4-0.9-0.9v-2.5c0-0.5,0.4-0.9,0.9-0.9h4c0.5,0,0.9,0.4,0.9,0.9V32
					C24.1,32.5,23.7,33,23.1,33z"/>
			</g>
		</g>
		<g>
			<g>
				<path class="st2" d="M56.6,18.6l-1.8-1.8c-0.4-0.4-0.4-1,0-1.3l2.8-2.8c0.4-0.4,1-0.4,1.3,0l1.8,1.8c0.4,0.4,0.4,1,0,1.3
					l-2.8,2.8C57.5,18.9,57,18.9,56.6,18.6z"/>
			</g>
			<g>
				<path class="st2" d="M26.2,48.9l-1.8-1.8c-0.4-0.4-0.4-1,0-1.3l2.8-2.8c0.4-0.4,1-0.4,1.3,0l1.8,1.8c0.4,0.4,0.4,1,0,1.3
					l-2.8,2.8C27.2,49.3,26.6,49.3,26.2,48.9z"/>
			</g>
		</g>
		<g>
			<g>
				<path class="st2" d="M57.6,48.9l-2.8-2.8c-0.4-0.4-0.4-1,0-1.3l1.8-1.8c0.4-0.4,1-0.4,1.3,0l2.8,2.8c0.4,0.4,0.4,1,0,1.3
					L59,48.9C58.6,49.3,58,49.3,57.6,48.9z"/>
			</g>
			<g>
				<path class="st2" d="M27.3,18.6l-2.8-2.8c-0.4-0.4-0.4-1,0-1.3l1.8-1.8c0.4-0.4,1-0.4,1.3,0l2.8,2.8c0.4,0.4,0.4,1,0,1.3
					l-1.8,1.8C28.2,18.9,27.7,18.9,27.3,18.6z"/>
			</g>
		</g>
		<g>
			<g>
				<path class="st2" d="M43.9,12.2h-2.5c-0.5,0-0.9-0.4-0.9-0.9v-4c0-0.5,0.4-0.9,0.9-0.9h2.5c0.5,0,0.9,0.4,0.9,0.9v4
					C44.8,11.8,44.4,12.2,43.9,12.2z"/>
			</g>
		</g>
		<path class="st2" d="M42.6,17.1c-7.9,0-14.3,6.4-14.3,14.3c0,4.8,2.4,9.2,6.3,11.8v8.5c0,2.2,1.1,4.1,2.8,5.2c0.6,2.3,2.7,4,5.1,4
			c2.5,0,4.5-1.7,5.1-4c1.7-1.1,2.8-3,2.8-5.2v-8.5c3.9-2.6,6.3-7.1,6.3-11.8C56.9,23.5,50.5,17.1,42.6,17.1z M39,44.3h7.1V47H39
			V44.3z M44.3,53.5h-3.5c-1,0-1.8-0.8-1.8-1.8v-0.2h7.1v0.2C46.2,52.7,45.3,53.5,44.3,53.5z M47.4,39.9h-9.6c-3.1-1.7-5-5-5-8.6
			c0-5.4,4.4-9.8,9.8-9.8s9.8,4.4,9.8,9.8C52.4,34.9,50.5,38.2,47.4,39.9z"/>
	</g>
</g>
</svg>
